<svg width="19" height="18" viewBox="0 0 19 18" fill="none" xmlns="http://www.w3.org/2000/svg">
<path fill-rule="evenodd" clip-rule="evenodd" d="M3.59529 0C3.59529 0.155294 3.24588 5.17059 2.54706 15.0376V15.0388C2.42941 16.4506 2.57882 16.8635 3.28471 17.5694H2.81412C2.64187 17.5694 2.40658 17.4433 2.10824 17.2834C1.99904 17.2249 1.88139 17.1619 1.75529 17.0988C1.52 16.6282 1.28471 16.1576 1.28471 15.5694L0 2.13529C0 0.958824 0.915294 0.315294 1.73882 0.197647L3.59529 0ZM15 8.28943L16.7415 10.2467L17.391 2.84255C17.3828 2.63301 17.3142 2.4674 17.23 2.35978C17.1507 2.25842 17.0486 2.19335 16.9098 2.1721L7.35073 1.35608C7.14066 1.36406 6.97465 1.4327 6.86684 1.51707C6.76523 1.5966 6.7001 1.69897 6.679 1.83825L5.80768 11.7713L8.1579 10.1627C8.36842 9.97535 8.78947 10.069 9 10.2563L10.8947 12.3169C11 12.4106 11.1053 12.5042 11.3158 12.5042C11.5263 12.5042 11.6316 12.5042 11.7368 12.4106C12.0526 12.2232 12.0526 11.8486 11.8421 11.6613L11.2105 11.0056C11 10.8183 11 10.5373 11.2105 10.4437L14.1579 8.19577C14.3684 8.00845 14.7895 8.10211 15 8.28943ZM4.33295 15.12C4.33295 16.0612 5.03883 16.8847 5.86236 17.0024L15.5094 17.8259C16.4506 17.9435 17.2741 17.2377 17.3918 16.2965L18.5682 2.88472C18.5682 1.94354 17.98 1.12001 17.0388 1.00236L7.39177 0.178833C6.45059 0.178833 5.62706 0.767068 5.50942 1.70824L4.33295 15.12ZM11.5294 4.76471C11.5294 5.73933 10.7393 6.52941 9.76471 6.52941C8.79009 6.52941 8 5.73933 8 4.76471C8 3.79009 8.79009 3 9.76471 3C10.7393 3 11.5294 3.79009 11.5294 4.76471Z" fill="#CFD0D4"/>
</svg>
