<svg width="20" height="18" viewBox="0 0 20 18" fill="none" xmlns="http://www.w3.org/2000/svg">
<path d="M0.71875 14.83C1.21875 15.83 1.99 16.3375 2.99 16.8375C2.99 16.8375 4.615 17.58 6.115 17.705C7.365 17.83 8.49 17.83 9.74 17.83C10.99 17.83 12.115 17.83 13.365 17.705C14.615 17.58 15.4637 17.3375 16.4637 16.8375C17.4637 16.3375 17.91 15.705 18.41 14.705C18.4325 14.705 18.91 12.9488 19.035 11.5738C19.16 10.0738 19.16 7.82375 19.035 6.19875C18.91 4.82375 18.9438 3.72875 18.4438 2.85375C17.9438 1.85375 17.365 1.09375 16.24 0.59375C15.49 0.21875 14.74 0.21875 13.24 0.09375C10.99 -0.03125 8.49 -0.03125 6.115 0.09375C4.865 0.21875 3.99 0.21875 2.99 0.71875C1.99 1.21875 1.21875 2.09375 0.71875 3.09375C0.71875 3.09375 0.21875 4.94875 0.09375 6.32375C-0.03125 7.82375 -0.03125 10.0738 0.09375 11.6988C0.21875 12.9488 0.34375 13.83 0.71875 14.83ZM13.8412 4.4875H16.7162C17.2162 4.4875 17.6775 4.7325 17.6775 5.3575C17.6775 5.9825 17.3687 6.2075 16.7437 6.2075L14.5025 6.2325L14.53 7.9975L16.095 7.9725C16.595 7.9725 17.1388 8.2275 17.1388 8.8525C17.1388 9.4775 16.5863 9.7225 16.0863 9.7225H14.515L14.4587 12.3963C14.4587 12.8963 14.2163 13.3962 13.5913 13.3962C12.9663 13.3962 12.7162 13.0213 12.7162 12.3963L12.6775 5.3575C12.6775 4.8575 13.215 4.4875 13.84 4.4875H13.8412ZM9.735 5.45125C9.735 4.82625 10.11 4.45125 10.735 4.45125C11.36 4.45125 11.735 4.82625 11.735 5.45125L11.6887 12.425C11.6887 12.925 11.3137 13.425 10.6887 13.425C10.0637 13.425 9.68875 12.925 9.68875 12.425L9.735 5.45125ZM5.745 4.42C6.62 4.42 7.37875 4.64875 8.00375 5.27375C8.37875 5.64875 8.50375 6.14875 8.12875 6.52375C7.87875 7.02375 7.25375 7.02375 6.87875 6.64875C6.62875 6.52375 6.25375 6.27375 5.75375 6.27375C4.50375 6.27375 3.24 7.32375 3.24 8.94875C3.24 10.5737 4.23375 11.7325 5.35875 11.7325C5.85875 11.7325 6.365 11.8238 6.74 11.5738V9.69875C6.74 9.19875 7.115 8.69875 7.74 8.69875C8.365 8.69875 8.74 9.07375 8.74 9.69875V11.9487C8.74 12.1988 8.78625 12.0375 8.66125 12.2875C7.78625 13.1625 6.69875 13.5262 5.57375 13.5262C3.325 13.5262 1.365 11.6987 1.365 8.94875C1.365 6.19875 3.495 4.42 5.745 4.42Z" fill="#CFD0D4"/>
</svg>
