<svg width="18" height="19" viewBox="0 0 18 19" fill="none" xmlns="http://www.w3.org/2000/svg">
<path fill-rule="evenodd" clip-rule="evenodd" d="M3.3483 17.9725C2.52477 17.5019 1.93653 16.5608 1.81889 15.6196L0.0541807 5.97252C-0.29876 3.85487 1.113 1.97252 3.113 1.61958L12.7601 0.0901655C13.8189 -0.145129 14.7601 0.0901655 15.5836 0.678401C16.4071 1.14899 16.9954 2.09017 17.113 3.03134L17.3483 4.09017C17.3483 5.50193 16.6424 6.56075 15.113 7.38428C12.2895 8.79605 9.93653 12.3255 9.81889 15.149C9.70124 16.796 8.52477 18.0902 6.64242 18.5608L6.17183 18.6784H5.46595C4.76006 18.6784 3.93653 18.4431 3.3483 17.9725ZM13.5836 6.32546C13.5836 5.61958 13.113 5.14899 12.4071 5.14899C11.7012 5.14899 11.2307 5.61958 11.2307 6.32546C11.2307 7.03134 11.7012 7.50193 12.4071 7.50193C13.113 7.50193 13.5836 7.03134 13.5836 6.32546ZM8.56006 13.6925C8.67771 13.4572 8.56006 13.1043 8.20712 12.9866C7.26595 12.6337 6.56006 11.9278 6.08947 10.9866C5.97183 10.6337 5.73653 10.516 5.38359 10.6337C5.1483 10.7513 4.913 11.1043 5.03065 11.4572C5.50124 12.6337 6.56006 13.6925 7.73653 14.1631H7.97183C8.20712 14.1631 8.44242 14.0455 8.56006 13.6925ZM6.52477 7.50193C6.52477 6.79605 6.05418 6.32546 5.3483 6.32546C4.64242 6.32546 4.17183 6.79605 4.17183 7.50193C4.17183 8.20781 4.64242 8.6784 5.3483 8.6784C6.05418 8.6784 6.52477 8.20781 6.52477 7.50193ZM10.0542 17.8548C10.6424 17.1489 11.113 16.3253 11.113 15.2665C11.2307 12.9136 13.2307 9.85475 15.5836 8.67828C16.5248 8.20769 17.2307 7.61946 17.7013 6.91357C18.0542 11.8548 14.8777 16.5606 10.0542 17.8548Z" fill="#CFD0D4"/>
</svg>
