<svg width="16" height="20" viewBox="0 0 16 20" fill="none" xmlns="http://www.w3.org/2000/svg">
<path fill-rule="evenodd" clip-rule="evenodd" d="M0 8C0 4.0452 3.5814 0 8 0C12.4177 0 16 4.0452 16 8C16 13.063 8 20 8 20C8 20 0 13.063 0 8ZM11.4637 5.45899C11.7572 5.72572 11.7723 6.18233 11.4969 6.4678L7.46362 10.6485C7.27473 10.8443 6.96443 10.8545 6.76307 10.6716L4.53528 8.64749C4.24228 8.38128 4.22727 7.92557 4.50213 7.64066C4.7656 7.36756 5.19841 7.35331 5.47927 7.60849L7.05812 9.04298L10.4846 5.49122C10.7486 5.21758 11.1823 5.2033 11.4637 5.45899Z" fill="#8C939C"/>
</svg>
