<svg width="20" height="20" viewBox="0 0 20 20" fill="none" xmlns="http://www.w3.org/2000/svg">
<path fill-rule="evenodd" clip-rule="evenodd" d="M15 9.16667H10.8333V5C10.8333 4.54 10.46 4.16667 10 4.16667C9.53958 4.16667 9.16667 4.54 9.16667 5V9.16667H5C4.53958 9.16667 4.16667 9.54 4.16667 10C4.16667 10.46 4.53958 10.8333 5 10.8333H9.16667V15C9.16667 15.46 9.53958 15.8333 10 15.8333C10.46 15.8333 10.8333 15.46 10.8333 15V10.8333H15C15.46 10.8333 15.8333 10.46 15.8333 10C15.8333 9.54 15.46 9.16667 15 9.16667ZM10 20C4.47708 20 0 15.5229 0 10C0 4.47708 4.47708 0 10 0C15.5225 0 20 4.47708 20 10C20 15.5229 15.5225 20 10 20Z" fill="#CFD0D4"/>
</svg>
