<svg width="16" height="16" viewBox="0 0 16 16" fill="none" xmlns="http://www.w3.org/2000/svg">
<path fill-rule="evenodd" clip-rule="evenodd" d="M1.84937 0.317301C1.4263 -0.105767 0.740369 -0.105767 0.317301 0.317301C-0.105767 0.740369 -0.105767 1.4263 0.317301 1.84937L6.05127 7.58333L0.317301 13.3173C-0.105767 13.7404 -0.105767 14.4263 0.317301 14.8494C0.740369 15.2724 1.4263 15.2724 1.84937 14.8494L7.58333 9.1154L13.3173 14.8494C13.7404 15.2724 14.4263 15.2724 14.8494 14.8494C15.2724 14.4263 15.2724 13.7404 14.8494 13.3173L9.1154 7.58333L14.8494 1.84937C15.2724 1.4263 15.2724 0.740369 14.8494 0.317301C14.4263 -0.105767 13.7404 -0.105767 13.3173 0.317301L7.58333 6.05127L1.84937 0.317301Z" fill="#CFD0D4"/>
</svg>
