<svg width="20" height="16" viewBox="0 0 20 16" fill="none" xmlns="http://www.w3.org/2000/svg">
<path fill-rule="evenodd" clip-rule="evenodd" d="M2 0C0.895416 0 0 0.895386 0 2V5V14C0 15.1046 0.895416 16 2 16H5H9H12H15H18C18.4385 16 18.8441 15.8589 19.1737 15.6196C19.1821 15.6135 19.1905 15.6073 19.1988 15.6011C19.2102 15.5925 19.2215 15.5838 19.2328 15.575C19.3973 15.446 19.5412 15.2918 19.6584 15.1182C19.8741 14.799 20 14.4142 20 14V5V2C20 0.895431 19.1046 0 18 0H15C14.4027 0 13.8665 0.261878 13.5 0.677089C13.1335 0.261878 12.5973 0 12 0H9C7.89543 0 7 0.895431 7 2C7 0.895386 6.10458 0 5 0H2ZM13 2C13 1.44772 12.5523 1 12 1H9C8.44772 1 8 1.44772 8 2V3H13V2ZM19 3.26755V2C19 1.44772 18.5523 1 18 1H15C14.4477 1 14 1.44772 14 2V3H18C18.3643 3 18.7058 3.09739 19 3.26755Z" fill="#8C939C"/>
</svg>
