<svg width="20" height="20" viewBox="0 0 20 20" fill="none" xmlns="http://www.w3.org/2000/svg">
<path d="M16.7175 3.28249C14.9359 1.50089 12.5196 0.5 10 0.5H9.5V0.513154C7.16259 0.636255 4.94587 1.6191 3.28249 3.28249C1.50089 5.06408 0.5 7.48044 0.5 10C0.5 12.5196 1.50089 14.9359 3.28249 16.7175C5.06408 18.4991 7.48044 19.5 10 19.5C12.5196 19.5 14.9359 18.4991 16.7175 16.7175C18.4991 14.9359 19.5 12.5196 19.5 10C19.5 7.48044 18.4991 5.06408 16.7175 3.28249Z" fill="url(#paint0_linear)" stroke="white"/>
<path d="M14.6823 9.25525C14.8802 9.39362 15.0625 9.53088 15.0625 10.0135C15.0625 10.4973 14.8049 10.693 14.5293 10.8291C14.6419 11.0128 14.6779 11.2334 14.6294 11.4434C14.5427 11.8304 14.1884 12.1307 13.8734 12.2196C14.0095 12.4379 14.0522 12.6528 13.8903 12.9171C13.6821 13.249 13.501 13.375 12.7 13.375H9.4375C8.326 13.375 7.75 12.7607 7.75 12.25V9.62313C7.75 8.23937 9.40037 7.06375 9.40037 6.10187L9.28113 4.90375C9.2755 4.83063 9.29013 4.65175 9.34637 4.6C9.43638 4.51113 9.685 4.375 10.0608 4.375C10.306 4.375 10.4691 4.42112 10.6615 4.51337C11.3151 4.825 11.485 5.61362 11.485 6.24812C11.485 6.553 11.0193 7.4665 10.9563 7.78262C10.9563 7.78262 11.9316 7.56662 13.0701 7.55875C14.2638 7.552 15.0377 7.7725 15.0377 8.506C15.0377 8.79962 14.7914 9.09437 14.6823 9.25525ZM5.05 8.875H5.95C6.12902 8.875 6.30071 8.94612 6.4273 9.0727C6.55388 9.19929 6.625 9.37098 6.625 9.55V13.825C6.625 14.004 6.55388 14.1757 6.4273 14.3023C6.30071 14.4289 6.12902 14.5 5.95 14.5H5.05C4.87098 14.5 4.69929 14.4289 4.5727 14.3023C4.44612 14.1757 4.375 14.004 4.375 13.825V9.55C4.375 9.37098 4.44612 9.19929 4.5727 9.0727C4.69929 8.94612 4.87098 8.875 5.05 8.875Z" fill="white"/>
<defs>
<linearGradient id="paint0_linear" x1="10" y1="1" x2="10" y2="19" gradientUnits="userSpaceOnUse">
<stop stop-color="#18AFFF"/>
<stop offset="1" stop-color="#0062DF"/>
</linearGradient>
</defs>
</svg>
