<svg width="20" height="13" viewBox="0 0 20 13" fill="none" xmlns="http://www.w3.org/2000/svg">
<path fill-rule="evenodd" clip-rule="evenodd" d="M3.1936 0.408702C3.39187 0.138341 3.70039 -0.00337513 4.01188 6.10354e-05H18C19.1046 6.10354e-05 20 0.895487 20 2.00005V11C20 12.1046 19.1046 13 18 13H4C3.44772 13 3 12.5523 3 12C3 11.4477 3.44772 11 4 11H18V2.97346L11.5 7.7401L3.40864 1.80646C2.96328 1.47986 2.867 0.854065 3.1936 0.408702ZM11.5 5.25997L7.05464 2.00005H15.9454L11.5 5.25997Z" fill="#8C939C"/>
<path d="M0 5.00004C0 4.44776 0.447715 4.00004 1 4.00004H4C4.55228 4.00004 5 4.44776 5 5.00004C5 5.55232 4.55228 6.00003 4 6.00003H1C0.447715 6.00003 0 5.55232 0 5.00004Z" fill="#8C939C"/>
<path d="M1 8.50002C1 7.94774 1.44772 7.50003 2 7.50003H7C7.55228 7.50003 8 7.94774 8 8.50002C8 9.0523 7.55228 9.50002 7 9.50002H2C1.44772 9.50002 1 9.0523 1 8.50002Z" fill="#8C939C"/>
</svg>
