<svg width="10" height="6" viewBox="0 0 10 6" fill="none" xmlns="http://www.w3.org/2000/svg">
<path fill-rule="evenodd" clip-rule="evenodd" d="M0.155951 0.941507C0.0547521 0.836728 -0.00124479 0.696393 2.10015e-05 0.550728C0.00128679 0.405063 0.059714 0.265723 0.162718 0.162718C0.265723 0.059714 0.405063 0.00128679 0.550728 2.10015e-05C0.696393 -0.00124479 0.836728 0.0547521 0.941507 0.155951L4.20762 3.42262C4.3118 3.52677 4.45308 3.58528 4.6004 3.58528C4.74771 3.58528 4.88899 3.52677 4.99317 3.42262L8.25928 0.155951C8.36406 0.0547521 8.5044 -0.00124479 8.65006 2.10015e-05C8.79573 0.00128679 8.93507 0.059714 9.03807 0.162718C9.14108 0.265723 9.1995 0.405063 9.20077 0.550728C9.20204 0.696393 9.14604 0.836728 9.04484 0.941507L4.99317 4.99317C4.88899 5.09732 4.74771 5.15583 4.6004 5.15583C4.45308 5.15583 4.3118 5.09732 4.20762 4.99317L0.155951 0.941507Z" fill="#080808"/>
</svg>
