<svg width="19" height="19" viewBox="0 0 19 19" fill="none" xmlns="http://www.w3.org/2000/svg">
<path fill-rule="evenodd" clip-rule="evenodd" d="M9.5 0C14.7467 0 19 4.25329 19 9.5C19 14.7467 14.7467 19 9.5 19C4.25329 19 0 14.7467 0 9.5C0 4.25329 4.25329 0 9.5 0ZM14.3686 10.2445C14.0627 10.0749 13.6772 10.1855 13.5077 10.4915C12.7812 11.8025 11.2366 12.6667 9.5 12.6667C7.76782 12.6667 6.22635 11.8068 5.49751 10.5008C5.32705 10.1954 4.94127 10.0859 4.63583 10.2564C4.33039 10.4269 4.22096 10.8126 4.39142 11.1181C5.34942 12.8347 7.31895 13.9333 9.5 13.9333C11.6867 13.9333 13.6605 12.829 14.6156 11.1054C14.7852 10.7995 14.6746 10.414 14.3686 10.2445ZM5.7 6.96667C5.35022 6.96667 5.06667 7.25022 5.06667 7.6C5.06667 7.94978 5.35022 8.23333 5.7 8.23333C6.04978 8.23333 6.33333 7.94978 6.33333 7.6C6.33333 7.25022 6.04978 6.96667 5.7 6.96667ZM13.3 6.96667C12.9502 6.96667 12.6667 7.25022 12.6667 7.6C12.6667 7.94978 12.9502 8.23333 13.3 8.23333C13.6498 8.23333 13.9333 7.94978 13.9333 7.6C13.9333 7.25022 13.6498 6.96667 13.3 6.96667Z" fill="#CFD0D4"/>
</svg>
